<svg width="19" height="19" viewBox="0 0 19 19" fill="none" xmlns="http://www.w3.org/2000/svg">
<path d="M7.52608 1H2C1.44772 1 1 1.44771 1 2V7.59576C1 8.14804 1.44772 8.59576 2 8.59576H7.52608C8.07837 8.59576 8.52608 8.14804 8.52608 7.59576V2C8.52608 1.44772 8.07837 1 7.52608 1Z" stroke="black" stroke-linecap="round" stroke-linejoin="round"/>
<path d="M17 1H11.4739C10.9216 1 10.4739 1.44771 10.4739 2V7.59576C10.4739 8.14804 10.9216 8.59576 11.4739 8.59576H17C17.5523 8.59576 18 8.14804 18 7.59576V2C18 1.44772 17.5523 1 17 1Z" stroke="black" stroke-linecap="round" stroke-linejoin="round"/>
<path d="M17.0007 10.4043H11.4746C10.9223 10.4043 10.4746 10.852 10.4746 11.4043V17C10.4746 17.5523 10.9223 18 11.4746 18H17.0007C17.553 18 18.0007 17.5523 18.0007 17V11.4043C18.0007 10.852 17.553 10.4043 17.0007 10.4043Z" stroke="black" stroke-linecap="round" stroke-linejoin="round"/>
<path d="M7.52608 10.4043H2C1.44772 10.4043 1 10.852 1 11.4043V17C1 17.5523 1.44772 18 2 18H7.52608C8.07837 18 8.52608 17.5523 8.52608 17V11.4043C8.52608 10.852 8.07837 10.4043 7.52608 10.4043Z" stroke="black" stroke-linecap="round" stroke-linejoin="round"/>
</svg>
