<svg width="17" height="18" viewBox="0 0 17 18" fill="none" xmlns="http://www.w3.org/2000/svg">
<path d="M6.52608 0.919922H1C0.447715 0.919922 0 1.36764 0 1.91992V7.51568C0 8.06796 0.447716 8.51568 1 8.51568H6.52608C7.07837 8.51568 7.52608 8.06797 7.52608 7.51568V1.91992C7.52608 1.36764 7.07837 0.919922 6.52608 0.919922Z" fill="#FF4E4E"/>
<path d="M16 0.919922H10.4739C9.92159 0.919922 9.47388 1.36764 9.47388 1.91992V7.51568C9.47388 8.06796 9.92159 8.51568 10.4739 8.51568H16C16.5522 8.51568 17 8.06797 17 7.51568V1.91992C17 1.36764 16.5522 0.919922 16 0.919922Z" fill="#FF4E4E"/>
<path d="M16.0007 10.3242H10.4746C9.92232 10.3242 9.47461 10.7719 9.47461 11.3242V16.92C9.47461 17.4723 9.92233 17.92 10.4746 17.92H16.0007C16.553 17.92 17.0007 17.4723 17.0007 16.92V11.3242C17.0007 10.7719 16.553 10.3242 16.0007 10.3242Z" fill="#FF4E4E"/>
<path d="M6.52608 10.3242H1C0.447715 10.3242 0 10.7719 0 11.3242V16.92C0 17.4723 0.447716 17.92 1 17.92H6.52608C7.07837 17.92 7.52608 17.4723 7.52608 16.92V11.3242C7.52608 10.7719 7.07837 10.3242 6.52608 10.3242Z" fill="#FF4E4E"/>
</svg>
